HIERARCHY
ROOT pelvis
{
  OFFSET 0 100 0
  CHANNELS 6 Xposition Yposition Zposition Zrotation Xrotation Yrotation
  JOINT pelvis_right_femur
  {
    OFFSET -10.78128 -3.44521 -0.5502486
    CHANNELS 3 Zrotation Xrotation Yrotation
    JOINT right_femur_tibia
    {
      OFFSET -0.8047443 -44.0398 -0.1307829
      CHANNELS 3 Zrotation Xrotation Yrotation
      JOINT right_tibia_foot
      {
        OFFSET 3.006224 -47.83518 -5
        CHANNELS 3 Zrotation Xrotation Yrotation
        End Site
        {
          OFFSET 0 -5 15
        }
      }
    }
  }
  JOINT pelvis_left_femur
  {
    OFFSET 10.78128 -3.44521 -0.5502486
    CHANNELS 3 Zrotation Xrotation Yrotation
    JOINT left_femur_tibia
    {
      OFFSET 0.8047443 -44.0398 -0.1307829
      CHANNELS 3 Zrotation Xrotation Yrotation
      JOINT left_tibia_foot
      {
        OFFSET -4.370144 -48.10324 -4.275266
        CHANNELS 3 Zrotation Xrotation Yrotation
        End Site
        {
          OFFSET 0 -5 15
        }
      }
    }
  }
  JOINT pelvis_spine1
  {
    OFFSET 0 6.468898 -3.129235
    CHANNELS 3 Zrotation Xrotation Yrotation
    JOINT spine1
    {
      OFFSET 0 23.15396 4.99043
      CHANNELS 3 Zrotation Xrotation Yrotation
      JOINT spine2
      {
        OFFSET 0 20.79997 -5.064912
        CHANNELS 3 Zrotation Xrotation Yrotation
        JOINT neck
        {
          OFFSET 0 14.38658 9.616178
          CHANNELS 3 Zrotation Xrotation Yrotation
          End Site
          {
            OFFSET 0 20 0
          }
        }
      }
      JOINT right_manubrium
      {
        OFFSET -5.722621 16.35077 3.967754
        CHANNELS 3 Zrotation Xrotation Yrotation
        JOINT right_clavicle
        {
          OFFSET -13.16364 1.694482 -4.693211
          CHANNELS 3 Zrotation Xrotation Yrotation
          JOINT right_humerus
          {
            OFFSET -28.5034 -0.3100689 -2.792744
            CHANNELS 3 Zrotation Xrotation Yrotation
            JOINT right_radius
            {
              OFFSET -25.15693 0.02248979 -1.271978
              CHANNELS 3 Zrotation Xrotation Yrotation
              End Site
              {
                OFFSET -15 0 0
              }
            }
          }
        }
      }
      JOINT left_manubrium
      {
        OFFSET 5.722621 16.35077 3.967754
        CHANNELS 3 Zrotation Xrotation Yrotation
        JOINT left_clavicle
        {
          OFFSET 13.16364 1.694482 -4.693211
          CHANNELS 3 Zrotation Xrotation Yrotation
          JOINT left_humerus
          {
            OFFSET 29.39168 -1.063119 -2.237045
            CHANNELS 3 Zrotation Xrotation Yrotation
            JOINT left_radius
            {
              OFFSET 24.59957 -0.9528479 0.9047498
              CHANNELS 3 Zrotation Xrotation Yrotation
              End Site
              {
                OFFSET 15 -0 -0
              }
            }
          }
        }
      }
    }
  }
}
MOTION
Frames: 9
Frame Time: 0.0416666666667
0 103.5113 0 2.725829 -1.903117 0.2563194 0.8052095 -10.87582 7.59377 -0 36.94605 -0 -4.876077 -18.62653 -3.047033 -8.186686 11.46464 -23.99806 -0 4.078278 -0 8.590941 -15.2894 25.98671 -2.286843 -3.407173 5.090193 2.902189 9.999903 -7.745745 1.470419 22.03209 5.698588 2.074813 -25.5583 9.374021 6.121293 -19.29451 10.70051 86.20239 34.30214 -20.39519 -0 0 15.06311 -6.104543 8.065731 3.25197 5.87158 -20.68155 -1.214522 -95.47524 26.30848 23.92389 0 0 -13.33258 9.643924 16.96576 3.246876
0.2550887 103.4571 1.345081 2.094552 -0.9357249 0.3172612 1.865316 -13.30317 8.543067 -0 37.08104 -0 -4.211496 -17.84588 -3.281934 -7.805375 11.21957 -23.82108 -0 4.225527 -0 7.736337 -16.31664 26.07599 -2.310906 -3.496525 5.041166 2.957947 9.971821 -7.837063 1.472251 21.99024 5.749821 2.089416 -25.67083 9.444821 6.149633 -19.32 10.72207 86.27821 34.1269 -20.62347 -0 0 15.16236 -5.962631 8.012567 3.09903 5.976837 -20.74912 -1.131145 -95.58107 26.34514 23.93678 0 0 -13.28984 9.657311 17.13302 3.21015
0.5071842 103.3839 2.931414 1.114799 -0.1248429 0.3491633 3.336766 -17.48142 8.370329 -0 35.23139 -0 -4.616191 -15.52176 -3.281267 -7.107227 11.34527 -22.90678 -0 4.701433 -0 6.044978 -18.44203 25.31749 -2.168631 -3.150361 5.044448 2.940383 10.0086 -7.757963 1.399076 21.86566 5.881541 2.228613 -25.75874 9.371362 6.045611 -19.16596 10.76086 86.39523 34.60441 -20.5384 -0 0 14.5503 -6.203923 8.080233 3.488846 5.840406 -20.76183 -1.371524 -95.03452 26.22257 23.58342 0 0 -14.38425 9.698883 16.26649 3.333394
0.7621285 103.2689 4.673743 0.4134592 0.5723836 0.3691059 4.492345 -20.67514 8.65132 -0 33.8739 -0 -4.797344 -13.91424 -3.457014 -6.6382 11.37272 -22.30568 -0 5.033616 -0 4.894771 -20.04204 24.8418 -2.094245 -2.976549 5.026517 2.948134 10.02822 -7.74871 1.352424 21.77692 5.979072 2.320514 -25.84257 9.342564 5.993461 -19.08224 10.7944 86.50993 34.81152 -20.59485 -0 0 14.20995 -6.323979 8.10304 3.679732 5.794002 -20.80449 -1.50044 -94.74044 26.1827 23.37319 0 0 -15.04824 9.68992 15.79352 3.446044
1.022118 103.0036 6.702336 -0.168446 1.301284 0.4123046 5.518329 -24.35518 8.411351 -0 30.96659 -0 -5.264267 -11.79489 -3.406795 -6.2837 11.61823 -21.38664 -0 5.299895 -0 4.276871 -21.67642 24.14089 -2.010709 -2.767694 5.016718 2.940668 10.06613 -7.724412 1.296521 21.6883 6.075012 2.422572 -25.89419 9.28063 5.929682 -18.98552 10.8315 86.63474 35.05961 -20.62826 -0 0 13.8095 -6.532032 8.148792 3.943167 5.718339 -20.84884 -1.673757 -94.38449 26.14322 23.13217 0 0 -15.80651 9.633291 15.21984 3.633954
1.282791 102.5423 9.078807 -0.5767372 2.025182 0.516662 6.266723 -27.78156 7.948588 -0 27.42385 -0 -5.718129 -9.682206 -3.211907 -6.059302 12.01663 -20.44766 -0 5.544529 -0 3.927004 -23.06183 23.30695 -1.943996 -2.591186 5.010931 2.927383 10.10845 -7.704054 1.245494 21.61795 6.152336 2.510766 -25.91717 9.21148 5.875171 -18.9056 10.8654 86.74814 35.25926 -20.66355 -0 0 13.46764 -6.755438 8.195335 4.190528 5.646632 -20.89298 -1.83679 -94.07786 26.1283 22.93069 0 0 -16.45812 9.538563 14.71806 3.853556
1.538417 101.8676 11.90799 -0.8684677 2.777377 0.728108 6.770456 -31.02497 7.2147 -0 23.26585 -0 -6.148856 -7.460749 -2.817128 -5.915175 12.62886 -19.43613 -0 5.977585 -0 3.6982 -24.10814 22.21089 -1.887116 -2.423969 5.014334 2.901715 10.1605 -7.677181 1.194954 21.56213 6.213768 2.591626 -25.90219 9.122911 5.822261 -18.83475 10.89854 86.84672 35.44419 -20.67403 -0 0 13.15273 -7.032305 8.255741 4.459174 5.565102 -20.93295 -2.005448 -93.7832 26.12298 22.74865 0 0 -17.054 9.401684 14.23131 4.117041
1.784518 101.0213 15.2799 -1.118069 3.496164 1.080874 7.097978 -33.76195 6.382539 -0 19.19583 -0 -6.518038 -5.316927 -2.281958 -5.77728 13.40817 -18.43096 -0 6.917457 -0 3.294737 -24.58929 20.79358 -1.844026 -2.272913 5.028956 2.863349 10.21965 -7.642604 1.146929 21.52439 6.255987 2.661212 -25.8472 9.017537 5.772629 -18.77774 10.92992 86.9189 35.60803 -20.64784 -0 0 12.88374 -7.357482 8.32879 4.74213 5.47566 -20.96379 -2.170727 -93.51469 26.12549 22.59801 0 0 -17.55993 9.226963 13.78054 4.412843
2.020677 100.1051 19.27089 -1.422224 4.119498 1.590292 7.394946 -35.70514 5.64841 -0 15.86488 -0 -6.835493 -3.433244 -1.68493 -5.55808 14.24998 -17.45906 -0 8.774331 -0 2.419202 -24.27153 18.97385 -1.815441 -2.135051 5.057757 2.810179 10.28573 -7.596559 1.101036 21.5051 6.278467 2.719605 -25.74796 8.893046 5.724385 -18.73548 10.96037 86.95551 35.75556 -20.56809 -0 0 12.66381 -7.742371 8.418195 5.04834 5.375706 -20.98124 -2.331227 -93.26873 26.12821 22.47921 0 0 -17.97069 9.015099 13.35952 4.737529
